<svg width="32" height="32" viewBox="0 0 32 32" fill="none" xmlns="http://www.w3.org/2000/svg">
<g clip-path="url(#clip0_207_278)">
<path fill-rule="evenodd" clip-rule="evenodd" d="M27.4286 2C28.2702 2 28.9524 2.68223 28.9524 3.52381V5.04762H30.4762C31.3178 5.04762 32 5.72985 32 6.57143C32 7.41301 31.3178 8.09524 30.4762 8.09524H28.9524V9.61905C28.9524 10.4606 28.2702 11.1429 27.4286 11.1429C26.587 11.1429 25.9048 10.4606 25.9048 9.61905V8.09524H24.381C23.5394 8.09524 22.8571 7.41301 22.8571 6.57143C22.8571 5.72985 23.5394 5.04762 24.381 5.04762H25.9048V3.52381C25.9048 2.68223 26.587 2 27.4286 2ZM3.04762 23.3333C3.8892 23.3333 4.57143 24.0156 4.57143 24.8571C5.41301 24.8571 6.09524 25.5394 6.09524 26.381C6.09524 27.2225 5.41301 27.9048 4.57143 27.9048C4.57143 28.7463 3.8892 29.4286 3.04762 29.4286C2.20604 29.4286 1.52381 28.7463 1.52381 27.9048C0.682233 27.9048 0 27.2225 0 26.381C0 25.5394 0.682233 24.8571 1.52381 24.8571C1.52381 24.0156 2.20604 23.3333 3.04762 23.3333Z" fill="#1E293B"/>
<path d="M14.72 25.9289C13.3587 25.9289 12.1397 25.5936 11.0628 24.9232C10.0063 24.2527 9.16315 23.3384 8.5333 22.1803C7.92378 21.0222 7.61902 19.7016 7.61902 18.2184C7.61902 16.7352 7.92378 15.4146 8.5333 14.2565C9.16315 13.0984 10.0063 12.1841 11.0628 11.5136C12.1397 10.8432 13.3587 10.5079 14.72 10.5079C15.7155 10.5079 16.6095 10.701 17.4019 11.087C18.2146 11.473 18.8749 12.0114 19.3828 12.7022C19.8908 13.3727 20.1752 14.1448 20.2362 15.0184V21.4184C20.1752 22.2921 19.8908 23.0743 19.3828 23.7651C18.8952 24.4356 18.2451 24.9638 17.4324 25.3498C16.6197 25.7359 15.7155 25.9289 14.72 25.9289ZM15.6647 21.7232C16.6603 21.7232 17.4628 21.3981 18.0724 20.7479C18.6819 20.0775 18.9866 19.2343 18.9866 18.2184C18.9866 17.5276 18.8444 16.9181 18.56 16.3898C18.2958 15.8616 17.9098 15.4552 17.4019 15.1708C16.9143 14.866 16.3454 14.7136 15.6952 14.7136C15.0451 14.7136 14.466 14.866 13.9581 15.1708C13.4704 15.4552 13.0743 15.8616 12.7695 16.3898C12.4851 16.9181 12.3428 17.5276 12.3428 18.2184C12.3428 18.8889 12.4851 19.4883 12.7695 20.0165C13.0539 20.5448 13.4501 20.9613 13.9581 21.266C14.466 21.5708 15.0349 21.7232 15.6647 21.7232ZM18.8038 25.6241V21.6317L19.5047 18.0356L18.8038 14.4394V10.8127H23.3752V25.6241H18.8038Z" fill="#1E293B"/>
</g>
<defs>
<clipPath id="clip0_207_278">
<rect width="32" height="32" fill="white"/>
</clipPath>
</defs>
</svg>
